<svg xmlns="http://www.w3.org/2000/svg" width="30" height="30" viewBox="0 0 30 30">
  <g>
    <rect width="30" height="30" fill="none" />
    <path d="M15,4.813A9.687,9.687,0,0,0,5.312,14.5v0A9.687,9.687,0,0,0,15,24.187h0A9.687,9.687,0,0,0,24.687,14.5v0A9.687,9.687,0,0,0,15,4.813ZM23.437,14.5a8.438,8.438,0,0,1-16.875,0h0A8.437,8.437,0,0,1,15,6.063h0A8.437,8.437,0,0,1,23.437,14.5Zm-5.816,3.449a.472.472,0,0,0,.656-.1l.32-.441a.468.468,0,0,0-.1-.655h0l-2.754-2V9.037a.47.47,0,0,0-.469-.469h-.547a.47.47,0,0,0-.469.469v6.234a.473.473,0,0,0,.191.379Z" />
  </g>
</svg>