<svg xmlns="http://www.w3.org/2000/svg" width="20" height="20" viewBox="0 0 20 20">
  <g id="Group_403" data-name="Group 403" transform="translate(-1704 -1764)">
    <path id="Path_1051" data-name="Path 1051" d="M10.312-17.187a10,10,0,0,0-10,10,10,10,0,0,0,10,10,10,10,0,0,0,10-10A10,10,0,0,0,10.312-17.187Zm8.71,10a8.709,8.709,0,0,1-8.71,8.71A8.709,8.709,0,0,1,1.6-7.187a8.709,8.709,0,0,1,8.71-8.71A8.709,8.709,0,0,1,19.022-7.187Zm-6,3.56a.487.487,0,0,0,.677-.1l.331-.456a.484.484,0,0,0-.1-.677L11.079-6.933v-5.9a.485.485,0,0,0-.484-.484H10.03a.485.485,0,0,0-.484.484V-6.4a.487.487,0,0,0,.2.391Z" transform="translate(1703.688 1781.188)" />
  </g>
</svg>